<?xml version="1.0" encoding="UTF-8" standalone="no"?>
<svg
   width="1024px"
   height="1024px"
   viewBox="0 0 1024 1024"
   class="icon"
   version="1.1"
   id="svg6"
   sodipodi:docname="map-location-svgrepo-com.svg"
   inkscape:version="1.1.2 (0a00cf5339, 2022-02-04, custom)"
   xmlns:inkscape="http://www.inkscape.org/namespaces/inkscape"
   xmlns:sodipodi="http://sodipodi.sourceforge.net/DTD/sodipodi-0.dtd"
   xmlns="http://www.w3.org/2000/svg"
   xmlns:svg="http://www.w3.org/2000/svg">
  <defs
     id="defs10" />
  <sodipodi:namedview
     id="namedview8"
     pagecolor="#ffffff"
     bordercolor="#666666"
     borderopacity="1.0"
     inkscape:pageshadow="2"
     inkscape:pageopacity="0.0"
     inkscape:pagecheckerboard="0"
     showgrid="false"
     inkscape:zoom="0.50683594"
     inkscape:cx="512"
     inkscape:cy="512.98651"
     inkscape:window-width="1366"
     inkscape:window-height="705"
     inkscape:window-x="-8"
     inkscape:window-y="-8"
     inkscape:window-maximized="1"
     inkscape:current-layer="svg6" />
  <path
     fill="currentColor"
     d="M800 416a288 288 0 10-576 0c0 118.144 94.528 272.128 288 456.576C705.472 688.128 800 534.144 800 416zM512 960C277.312 746.688 160 565.312 160 416a352 352 0 01704 0c0 149.312-117.312 330.688-352 544z"
     id="path2"
     style="fill:#ef2779;fill-opacity:1" />
  <path
     fill="currentColor"
     d="M512 448a64 64 0 100-128 64 64 0 000 128zm0 64a128 128 0 110-256 128 128 0 010 256zm345.6 192L960 960H672v-64H352v64H64l102.4-256h691.2zm-68.928 0H235.328l-76.8 192h706.944l-76.8-192z"
     id="path4"
     style="fill:#ef2779;fill-opacity:1" />
</svg>
