<?xml version="1.0" encoding="UTF-8" standalone="no"?>
<!-- Generator: Adobe Illustrator 16.0.0, SVG Export Plug-In . SVG Version: 6.00 Build 0)  -->

<svg
   version="1.1"
   id="Capa_1"
   x="0px"
   y="0px"
   width="577.565px"
   height="577.565px"
   viewBox="0 0 577.565 577.565"
   style="enable-background:new 0 0 577.565 577.565;"
   xml:space="preserve"
   sodipodi:docname="phone-svgrepo-com.svg"
   inkscape:version="1.1.2 (0a00cf5339, 2022-02-04, custom)"
   xmlns:inkscape="http://www.inkscape.org/namespaces/inkscape"
   xmlns:sodipodi="http://sodipodi.sourceforge.net/DTD/sodipodi-0.dtd"
   xmlns="http://www.w3.org/2000/svg"
   xmlns:svg="http://www.w3.org/2000/svg"><defs
   id="defs39" /><sodipodi:namedview
   id="namedview37"
   pagecolor="#ffffff"
   bordercolor="#666666"
   borderopacity="1.0"
   inkscape:pageshadow="2"
   inkscape:pageopacity="0.0"
   inkscape:pagecheckerboard="0"
   showgrid="false"
   inkscape:zoom="0.89860015"
   inkscape:cx="288.7825"
   inkscape:cy="289.33892"
   inkscape:window-width="1366"
   inkscape:window-height="705"
   inkscape:window-x="-8"
   inkscape:window-y="-8"
   inkscape:window-maximized="1"
   inkscape:current-layer="Capa_1" />
<g
   id="g4"
   style="fill:#ef2779;fill-opacity:1">
	<path
   d="M436.782,0H140.784c-9.228,0-16.734,7.506-16.734,16.734v544.097c0,9.228,7.507,16.734,16.734,16.734h295.998   c9.228,0,16.734-7.507,16.734-16.734V16.734C453.516,7.506,446,0,436.782,0z M401.821,28.075c4.849,0,8.788,3.94,8.788,8.798   c0,4.848-3.939,8.788-8.788,8.788c-4.857,0-8.797-3.939-8.797-8.788C393.023,32.025,396.973,28.075,401.821,28.075z    M383.987,32.856c2.219,0,4.017,1.798,4.017,4.017c0,2.218-1.798,4.016-4.017,4.016c-2.228,0-4.017-1.798-4.017-4.016   C379.97,34.654,381.768,32.856,383.987,32.856z M373.363,32.856c2.219,0,4.017,1.798,4.017,4.017c0,2.218-1.798,4.016-4.017,4.016   s-4.016-1.798-4.016-4.016C369.337,34.654,371.135,32.856,373.363,32.856z M255.802,28.075h65.953v17.585h-65.953V28.075z    M321.754,551.823h-65.953v-17.586h65.953V551.823z M418.603,513.229h-259.65V66.191h259.65V513.229z"
   id="path2"
   style="fill:#ef2779;fill-opacity:1" />
</g>
<g
   id="g6">
</g>
<g
   id="g8">
</g>
<g
   id="g10">
</g>
<g
   id="g12">
</g>
<g
   id="g14">
</g>
<g
   id="g16">
</g>
<g
   id="g18">
</g>
<g
   id="g20">
</g>
<g
   id="g22">
</g>
<g
   id="g24">
</g>
<g
   id="g26">
</g>
<g
   id="g28">
</g>
<g
   id="g30">
</g>
<g
   id="g32">
</g>
<g
   id="g34">
</g>
</svg>
